<svg width="986" height="160" viewBox="0 0 986 160" fill="none" xmlns="http://www.w3.org/2000/svg">
<path d="M62.3828 0C82.5077 0.000697879 97.0639 3.75254 106.04 11.2559C115.015 18.7596 119.506 28.1946 119.506 39.5547C119.506 46.2161 117.681 52.249 114.035 57.6484C110.389 63.0475 104.881 67.7835 97.5195 71.8506C103.478 73.3231 108.04 75.0418 111.195 77.0049C116.313 80.1605 120.278 84.3351 123.083 89.5234C125.958 94.6426 127.396 100.781 127.396 107.934C127.396 116.91 125.046 125.538 120.348 133.812C115.65 142.017 108.878 148.365 100.044 152.854C91.2085 157.271 79.598 159.48 65.2236 159.48C51.1999 159.48 40.1154 157.831 31.9805 154.536C23.9165 151.24 17.2527 146.435 11.9932 140.124C6.80364 133.742 2.80527 125.746 0 116.139L42.8164 110.458C44.4996 119.084 47.0941 125.081 50.6006 128.447C54.1768 131.742 58.7023 133.392 64.1709 133.392C69.9192 133.39 74.6926 131.287 78.4785 127.08C82.3341 122.872 84.2646 117.26 84.2646 110.248C84.2646 103.096 82.4037 97.5542 78.6885 93.627C75.0428 89.7008 70.06 87.7366 63.751 87.7354C60.3856 87.7354 55.7529 88.5776 49.8643 90.2598L52.0732 59.6475C54.4551 59.9976 56.3179 60.1738 57.6494 60.1738C63.2573 60.1725 67.9249 58.384 71.6406 54.8086C75.4258 51.2324 77.3213 46.9871 77.3213 42.0791C77.3213 37.382 75.9166 33.6282 73.1133 30.8232C70.3091 28.019 66.4476 26.6163 61.541 26.6152C56.4932 26.6153 52.3889 28.1603 49.2334 31.2441C46.0776 34.2597 43.9386 39.5904 42.8164 47.2344L2.31445 39.9756C5.68088 27.072 12.1334 17.1823 21.6709 10.3096C31.2788 3.43838 44.852 1.54633e-05 62.3828 0Z" fill="#C5C0BD"/>
<path fill-rule="evenodd" clip-rule="evenodd" d="M193.671 0C205.941 0.000442779 215.624 1.43751 222.706 4.3125C229.857 7.11776 235.787 11.2575 240.484 16.7266C245.182 22.1964 248.761 29.0716 251.215 37.3457L208.609 42.6055C207.488 36.6467 205.592 32.4365 202.929 29.9814C200.335 27.528 197.105 26.301 193.25 26.2998C186.308 26.2998 180.907 29.8078 177.05 36.8193C174.245 41.8688 172.175 52.6697 170.843 69.2207C175.961 64.0325 181.223 60.2081 186.622 57.7539C192.021 55.2306 198.266 53.9668 205.348 53.9668C219.091 53.9681 230.702 58.8771 240.169 68.6943C249.705 78.5124 254.476 90.963 254.476 106.04C254.476 116.208 252.055 125.503 247.217 133.918C242.449 142.332 235.783 148.715 227.229 153.063C218.745 157.341 208.081 159.48 195.249 159.48C179.822 159.48 167.44 156.849 158.113 151.591C148.786 146.331 141.316 137.949 135.706 126.448C130.166 114.876 127.396 99.5877 127.396 80.582C127.396 52.7396 133.252 32.3663 144.964 19.4619C156.676 6.48927 172.913 0 193.671 0ZM193.355 80.4766C187.395 80.4766 182.379 82.688 178.312 87.1045C174.314 91.5228 172.315 97.8347 172.315 106.04C172.315 114.386 174.42 120.943 178.628 125.712C182.835 130.409 187.992 132.761 194.092 132.761C199.7 132.759 204.403 130.62 208.188 126.344C211.974 122.066 213.869 115.681 213.869 107.197C213.869 98.5026 211.903 91.873 207.978 87.3145C204.051 82.7575 199.174 80.4781 193.355 80.4766Z" fill="#C5C0BD"/>
<path fill-rule="evenodd" clip-rule="evenodd" d="M320.751 0C333.021 0.000449404 342.704 1.43752 349.786 4.3125C356.937 7.11776 362.867 11.2575 367.564 16.7266C372.262 22.1964 375.841 29.0716 378.295 37.3457L335.689 42.6055C334.568 36.6467 332.672 32.4365 330.009 29.9814C327.415 27.528 324.185 26.301 320.33 26.2998C313.388 26.2998 307.987 29.8078 304.13 36.8193C301.325 41.8688 299.255 52.6697 297.923 69.2207C303.042 64.0324 308.303 60.2081 313.702 57.7539C319.101 55.2306 325.346 53.9668 332.428 53.9668C346.171 53.9681 357.782 58.8771 367.249 68.6943C376.785 78.5124 381.556 90.9631 381.556 106.04C381.556 116.208 379.135 125.503 374.297 133.918C369.529 142.332 362.863 148.715 354.31 153.063C345.825 157.341 335.161 159.48 322.329 159.48C306.902 159.48 294.52 156.849 285.193 151.591C275.867 146.331 268.397 137.949 262.786 126.448C257.246 114.876 254.476 99.5877 254.476 80.582C254.476 52.7396 260.332 32.3663 272.044 19.4619C283.756 6.48927 299.993 0 320.751 0ZM320.436 80.4766C314.476 80.4766 309.459 82.688 305.392 87.1045C301.394 91.5228 299.396 97.8347 299.396 106.04C299.396 114.386 301.499 120.943 305.707 125.712C309.915 130.409 315.072 132.761 321.172 132.761C326.78 132.759 331.483 130.62 335.269 126.344C339.054 122.066 340.949 115.681 340.949 107.197C340.949 98.5026 338.983 91.873 335.058 87.3145C331.132 82.7575 326.254 80.4781 320.436 80.4766Z" fill="#C5C0BD"/>
<path fill-rule="evenodd" clip-rule="evenodd" d="M917.116 0.240234C936.764 0.240234 951.727 3.91124 962.006 11.2529C972.354 18.5247 978.507 30.1315 980.465 46.0732L935.681 48.6953C934.492 41.7733 931.974 36.7392 928.129 33.5928C924.353 30.4463 919.109 28.873 912.396 28.873C906.873 28.8731 902.713 30.0613 899.916 32.4385C897.119 34.7459 895.721 37.5784 895.721 40.9346C895.721 43.3816 896.874 45.5843 899.182 47.542C901.419 49.5697 906.734 51.4571 915.124 53.2051C935.89 57.68 950.748 62.2251 959.698 66.8398C968.718 71.3847 975.255 77.0487 979.311 83.8311C983.436 90.6133 985.499 98.1994 985.499 106.59C985.499 116.449 982.772 125.539 977.318 133.859C971.865 142.18 964.243 148.508 954.454 152.843C944.665 157.108 932.324 159.24 917.431 159.24C891.281 159.24 873.171 154.206 863.103 144.138C858.69 139.725 855.117 134.788 852.383 129.328V156.618H813.577V39.3613L783.477 156.618H748.341L718.345 39.3613V156.618H679.435V2.8623H741.943L766.066 96.416L790.084 2.8623H852.383V38.29C853.334 32.9344 855.403 27.8023 858.593 22.8945C863.208 15.8327 870.094 10.3087 879.254 6.32324C888.483 2.26785 901.104 0.240255 917.116 0.240234ZM852.383 105.351L891.211 102.919C892.19 110.261 894.182 115.855 897.188 119.7C902.083 125.923 909.075 129.034 918.165 129.034C924.947 129.034 930.157 127.461 933.793 124.314C937.499 121.098 939.352 117.392 939.352 113.197C939.352 109.212 937.603 105.645 934.107 102.499C930.611 99.3526 922.5 96.3818 909.774 93.585C888.938 88.9003 874.08 82.6771 865.2 74.916C858.15 68.8024 853.879 61.3647 852.383 52.6045V105.351Z" fill="#C5C0BD"/>
<path d="M501.236 35.8994H431.491V62.75H491.063V93.7939H431.491V156.618H383.77V2.8623H501.236V35.8994Z" fill="#C5C0BD"/>
<path d="M551.826 156.618H504.21V2.8623H551.826V156.618Z" fill="#C5C0BD"/>
<path d="M602.311 118.756H676.461V156.618H554.799V2.8623H602.311V118.756Z" fill="#C5C0BD"/>
</svg>
