<svg width="1649" height="159" viewBox="0 0 1649 159" fill="none" xmlns="http://www.w3.org/2000/svg">
<path d="M1579.75 0C1599.4 5.93894e-05 1614.36 3.67107 1624.64 11.0127C1634.99 18.2844 1641.14 29.8911 1643.1 45.833L1598.31 48.4551C1597.13 41.533 1594.61 36.499 1590.76 33.3525C1586.99 30.2062 1581.74 28.6329 1575.03 28.6328C1569.51 28.6328 1565.35 29.8209 1562.55 32.1982C1559.75 34.5056 1558.35 37.3381 1558.35 40.6943C1558.35 43.1414 1559.51 45.3441 1561.82 47.3018C1564.05 49.3295 1569.37 51.2168 1577.76 52.9648C1598.52 57.4397 1613.38 61.9849 1622.33 66.5996C1631.35 71.1445 1637.89 76.8085 1641.95 83.5908C1646.07 90.373 1648.13 97.9593 1648.13 106.35C1648.13 116.208 1645.41 125.299 1639.95 133.619C1634.5 141.94 1626.88 148.268 1617.09 152.603C1607.3 156.868 1594.96 159 1580.07 159C1553.92 159 1535.8 153.966 1525.74 143.897C1521.32 139.484 1517.75 134.547 1515.02 129.086V156.378H1385.38V2.62207H1512.71V35.4502H1433V59.8877H1506.94V91.2471H1433V121.558H1511.89C1510.22 116.579 1509.13 111.23 1508.64 105.511L1553.84 102.679C1554.82 110.02 1556.82 115.614 1559.82 119.46C1564.72 125.683 1571.71 128.794 1580.8 128.794C1587.58 128.794 1592.79 127.221 1596.43 124.074C1600.13 120.858 1601.99 117.152 1601.99 112.957C1601.99 108.972 1600.24 105.405 1596.74 102.259C1593.25 99.1125 1585.13 96.1415 1572.41 93.3447C1551.57 88.66 1536.71 82.437 1527.83 74.6758C1518.88 66.9146 1514.41 57.0205 1514.41 44.9941C1514.41 37.0931 1516.68 29.6464 1521.23 22.6543C1525.84 15.5923 1532.73 10.0685 1541.89 6.08301C1551.12 2.02769 1563.74 0 1579.75 0ZM83.8008 54.5381L114.846 2.62207H287.225V35.4502H207.515V59.8877H281.456V91.2471H207.515V121.558H289.532V136.724L339.935 2.62207H391.746L442.148 136.724V2.62207H521.334C536.017 2.62207 547.24 3.88031 555.001 6.39746C562.762 8.91461 569.02 13.5999 573.774 20.4521C578.529 27.2344 580.906 35.5198 580.906 45.3086C580.906 53.8388 579.089 61.2156 575.453 67.4385C571.817 73.5914 566.818 78.5909 560.455 82.4365C556.4 84.8838 550.84 86.9114 543.778 88.5195C549.442 90.4074 553.567 92.2958 556.154 94.1836C557.902 95.4421 560.42 98.1336 563.706 102.259C567.062 106.384 569.299 109.566 570.418 111.804L590.618 151.003V2.62207H638.234V156.378H539.688L514.307 109.392C511.09 103.309 508.224 99.3581 505.707 97.54C502.281 95.1627 498.4 93.9736 494.064 93.9736H489.869V156.378H399.822L392.271 130.997H338.151L330.705 156.378H159.898V13.6641L107.504 91.9805V156.378H59.8877V91.9805L0 2.62207H52.7559L83.8008 54.5381ZM744.952 87.6807V2.62207H789.736V156.378H744.952L687.372 71.9482V156.378H642.693V2.62207H687.058L744.952 87.6807ZM913.353 35.6592H843.607V62.5098H903.18V93.5537H843.607V156.378H795.886V2.62207H913.353V35.6592ZM995.151 2.62207C1009.83 2.62207 1021.06 3.88031 1028.82 6.39746C1036.58 8.91462 1042.84 13.5999 1047.59 20.4521C1052.35 27.2344 1054.72 35.5198 1054.72 45.3086C1054.72 53.8388 1052.91 61.2156 1049.27 67.4385C1045.63 73.5914 1040.64 78.5909 1034.27 82.4365C1030.22 84.8838 1024.66 86.9114 1017.6 88.5195C1023.26 90.4074 1027.38 92.2957 1029.97 94.1836C1031.72 95.4421 1034.24 98.1336 1037.52 102.259C1040.88 106.384 1043.12 109.566 1044.24 111.804L1057.15 136.866L1107.61 2.62207H1159.42L1209.82 136.724V2.62207H1272.33L1296.45 96.1758L1320.47 2.62207H1382.77V156.378H1343.96V39.1211L1313.86 156.378H1278.73L1248.73 39.1211V156.378H1167.49L1159.94 130.997H1105.82L1098.38 156.378H1013.51L988.124 109.392C984.908 103.309 982.041 99.3581 979.524 97.54C976.098 95.1627 972.217 93.9736 967.882 93.9736H963.687V156.378H915.966V2.62207H995.151ZM348.43 97.749H382.307L365.316 42.4766L348.43 97.749ZM1116.1 97.749H1149.98L1132.99 42.4766L1116.1 97.749ZM489.869 64.9219H509.902C512.07 64.9218 516.265 64.2225 522.487 62.8242C525.634 62.1949 528.186 60.5861 530.144 57.999C532.171 55.412 533.186 52.4402 533.186 49.084C533.185 44.1198 531.612 40.3092 528.466 37.6523C525.319 34.9954 519.411 33.667 510.741 33.667H489.869V64.9219ZM963.687 64.9219H983.72C985.887 64.9218 990.082 64.2225 996.305 62.8242C999.451 62.1949 1002 60.5861 1003.96 57.999C1005.99 55.412 1007 52.4402 1007 49.084C1007 44.1198 1005.43 40.3092 1002.28 37.6523C999.137 34.9954 993.229 33.667 984.559 33.667H963.687V64.9219Z" fill="#C4C1BC"/>
</svg>
