<svg width="66" height="9" viewBox="0 0 66 9" fill="none" xmlns="http://www.w3.org/2000/svg">
<path d="M3.67871 0C4.79964 3.8871e-05 5.6104 0.209023 6.11035 0.626953C6.61023 1.0449 6.86035 1.57039 6.86035 2.20312C6.86035 2.57416 6.75872 2.91019 6.55566 3.21094C6.35258 3.51166 6.04578 3.77542 5.63574 4.00195C5.96763 4.08397 6.22173 4.17972 6.39746 4.28906C6.68251 4.46483 6.90336 4.69734 7.05957 4.98633C7.21968 5.27146 7.2998 5.61334 7.2998 6.01172C7.2998 6.51167 7.16889 6.99223 6.90723 7.45312C6.64555 7.91008 6.26843 8.26368 5.77637 8.51367C5.28424 8.75973 4.63755 8.88278 3.83691 8.88281C3.05582 8.88281 2.43845 8.79094 1.98535 8.60742C1.5362 8.42385 1.16502 8.15617 0.87207 7.80469C0.583023 7.44924 0.36035 7.00387 0.204102 6.46875L2.58887 6.15234C2.68262 6.63278 2.82716 6.9668 3.02246 7.1543C3.22165 7.33779 3.47372 7.42969 3.77832 7.42969C4.09849 7.42961 4.36433 7.31242 4.5752 7.07812C4.78994 6.84377 4.89746 6.53116 4.89746 6.14062C4.89746 5.74228 4.79385 5.43358 4.58691 5.21484C4.38385 4.99616 4.1063 4.88678 3.75488 4.88672C3.56744 4.88672 3.30943 4.93365 2.98145 5.02734L3.10449 3.32227C3.23716 3.34177 3.34088 3.35156 3.41504 3.35156C3.7274 3.3515 3.98737 3.25189 4.19434 3.05273C4.40516 2.85355 4.51074 2.61712 4.51074 2.34375C4.51074 2.08212 4.43251 1.87303 4.27637 1.7168C4.12018 1.56061 3.90512 1.48248 3.63184 1.48242C3.35067 1.48242 3.12205 1.56846 2.94629 1.74023C2.77051 1.9082 2.65137 2.2051 2.58887 2.63086L0.333008 2.22656C0.520513 1.50785 0.879902 0.957018 1.41113 0.574219C1.94628 0.191505 2.70227 0 3.67871 0Z" fill="white"/>
<path fill-rule="evenodd" clip-rule="evenodd" d="M10.9912 0C11.6747 2.44629e-05 12.2139 0.0801026 12.6084 0.240234C13.0067 0.396483 13.337 0.627022 13.5986 0.931641C13.8603 1.2363 14.0596 1.61922 14.1963 2.08008L11.8232 2.37305C11.7608 2.04114 11.6552 1.80666 11.5068 1.66992C11.3624 1.53327 11.1825 1.46491 10.9678 1.46484C10.5811 1.46484 10.2803 1.66024 10.0654 2.05078C9.90918 2.33203 9.79395 2.93361 9.71973 3.85547C10.0048 3.56649 10.2979 3.35349 10.5986 3.2168C10.8994 3.07625 11.2472 3.00586 11.6416 3.00586C12.4071 3.00593 13.0538 3.27937 13.5811 3.82617C14.1122 4.37302 14.3779 5.06649 14.3779 5.90625C14.3779 6.4726 14.2431 6.99027 13.9736 7.45898C13.7081 7.92765 13.3368 8.28321 12.8604 8.52539C12.3878 8.76364 11.7938 8.88278 11.0791 8.88281C10.2199 8.88281 9.53025 8.73624 9.01074 8.44336C8.49124 8.15041 8.07519 7.68353 7.7627 7.04297C7.4541 6.39844 7.2998 5.54688 7.2998 4.48828C7.2998 2.9375 7.62598 1.80273 8.27832 1.08398C8.93065 0.361432 9.83504 0 10.9912 0ZM10.9736 4.48242C10.6417 4.48242 10.3623 4.60557 10.1357 4.85156C9.91309 5.09766 9.80176 5.44922 9.80176 5.90625C9.80176 6.37109 9.91895 6.73633 10.1533 7.00195C10.3877 7.26357 10.6749 7.39453 11.0146 7.39453C11.327 7.39445 11.5889 7.27531 11.7998 7.03711C12.0107 6.79883 12.1162 6.44326 12.1162 5.9707C12.1162 5.48643 12.0067 5.11718 11.7881 4.86328C11.5694 4.60946 11.2977 4.4825 10.9736 4.48242Z" fill="white"/>
<path fill-rule="evenodd" clip-rule="evenodd" d="M18.0693 0C18.7528 2.45001e-05 19.2921 0.0801026 19.6865 0.240234C20.0848 0.396483 20.4151 0.627022 20.6768 0.931641C20.9384 1.2363 21.1377 1.61922 21.2744 2.08008L18.9014 2.37305C18.8389 2.04114 18.7333 1.80666 18.585 1.66992C18.4405 1.53327 18.2606 1.46491 18.0459 1.46484C17.6592 1.46484 17.3584 1.66024 17.1436 2.05078C16.9873 2.33203 16.8721 2.93361 16.7979 3.85547C17.083 3.56649 17.376 3.35349 17.6768 3.2168C17.9775 3.07625 18.3253 3.00586 18.7197 3.00586C19.4852 3.00593 20.1319 3.27937 20.6592 3.82617C21.1903 4.37302 21.4561 5.06649 21.4561 5.90625C21.4561 6.4726 21.3212 6.99027 21.0518 7.45898C20.7862 7.92765 20.4149 8.28321 19.9385 8.52539C19.4659 8.76364 18.8719 8.88278 18.1572 8.88281C17.298 8.88281 16.6084 8.73624 16.0889 8.44336C15.5694 8.15041 15.1533 7.68353 14.8408 7.04297C14.5322 6.39844 14.3779 5.54688 14.3779 4.48828C14.3779 2.9375 14.7041 1.80273 15.3564 1.08398C16.0088 0.361432 16.9132 0 18.0693 0ZM18.0518 4.48242C17.7198 4.48242 17.4404 4.60557 17.2139 4.85156C16.9912 5.09766 16.8799 5.44922 16.8799 5.90625C16.8799 6.37109 16.9971 6.73633 17.2314 7.00195C17.4658 7.26357 17.753 7.39453 18.0928 7.39453C18.4051 7.39445 18.6671 7.27531 18.8779 7.03711C19.0888 6.79883 19.1943 6.44326 19.1943 5.9707C19.1943 5.48643 19.0849 5.11718 18.8662 4.86328C18.6475 4.60946 18.3758 4.4825 18.0518 4.48242Z" fill="white"/>
<path fill-rule="evenodd" clip-rule="evenodd" d="M35.7041 0C37.1337 0 38.2354 0.384848 39.0088 1.1543C39.7822 1.91992 40.1689 2.99414 40.1689 4.37695C40.1689 5.38086 39.999 6.20508 39.6592 6.84961C39.3232 7.49019 38.8349 7.99025 38.1943 8.34961C37.5576 8.70501 36.7626 8.88281 35.8096 8.88281C34.8409 8.88279 34.038 8.72849 33.4014 8.41992C32.7686 8.11132 32.2548 7.62298 31.8604 6.95508C31.4659 6.28713 31.2686 5.45112 31.2686 4.44727C31.2686 3.045 31.6593 1.95312 32.4404 1.17188C33.2216 0.390671 34.3097 4.59453e-05 35.7041 0ZM35.6982 2.00977C35.1632 2.00982 34.7333 2.19928 34.4092 2.57812C34.085 2.95704 33.9229 3.58408 33.9229 4.45898C33.9229 5.32608 34.0831 5.94921 34.4033 6.32812C34.7275 6.70698 35.1671 6.89643 35.7217 6.89648C36.2919 6.89648 36.7334 6.71086 37.0459 6.33984C37.3584 5.96875 37.5146 5.30273 37.5146 4.3418C37.5146 3.5332 37.3506 2.94336 37.0225 2.57227C36.6983 2.19735 36.2568 2.00977 35.6982 2.00977Z" fill="white"/>
<path d="M61.9756 0C63.0731 2.80318e-05 63.9092 0.205106 64.4834 0.615234C65.0614 1.02149 65.4053 1.67 65.5146 2.56055L63.0127 2.70703C62.9463 2.32039 62.8056 2.03907 62.5908 1.86328C62.3799 1.68754 62.0868 1.59964 61.7119 1.59961C61.4034 1.59961 61.1709 1.66609 61.0146 1.79883C60.8584 1.92773 60.7803 2.08594 60.7803 2.27344C60.7803 2.41016 60.8447 2.5332 60.9736 2.64258C61.0987 2.75582 61.3957 2.86136 61.8643 2.95898C63.0243 3.20897 63.8545 3.46291 64.3545 3.7207C64.8583 3.97459 65.2237 4.29106 65.4502 4.66992C65.6806 5.0488 65.7959 5.4727 65.7959 5.94141C65.7959 6.49215 65.6435 7.00003 65.3389 7.46484C65.0342 7.92963 64.6083 8.28321 64.0615 8.52539C63.5147 8.76365 62.8251 8.88279 61.9932 8.88281C60.5323 8.88281 59.5205 8.60149 58.958 8.03906C58.7328 7.81382 58.5483 7.56316 58.4014 7.28906V8.73633H51.1592V0.146484H58.2725V1.98047H53.8193V3.3457H57.9502V5.09766H53.8193V6.79102H58.1855C58.0918 6.51276 58.0303 6.21419 58.0029 5.89453L60.5283 5.73633C60.583 6.14647 60.6943 6.45899 60.8623 6.67383C61.1357 7.02141 61.5264 7.19531 62.0342 7.19531C62.413 7.19528 62.7041 7.10739 62.9072 6.93164C63.1142 6.75198 63.2178 6.54487 63.2178 6.31055C63.2178 6.08794 63.12 5.88864 62.9248 5.71289C62.7295 5.53713 62.2762 5.37108 61.5654 5.21484C60.4015 4.95315 59.5713 4.60542 59.0752 4.17188C58.5752 3.73828 58.3252 3.18555 58.3252 2.51367C58.3252 2.07227 58.4521 1.65625 58.7061 1.26562C58.9639 0.871143 59.3487 0.562481 59.8604 0.339844C60.376 0.113337 61.0812 0 61.9756 0Z" fill="white"/>
<path d="M26.374 5.37305L27.7158 0.146484H31.1963V8.73633H29.0283V2.18555L27.3467 8.73633H25.3838L23.708 2.18555V8.73633H21.5342V0.146484H25.0264L26.374 5.37305Z" fill="white"/>
<path d="M43.7842 6.32812L45.6885 0.146484H48.3838L45.1963 8.73633H42.3193L39.0732 0.146484H41.8506L43.7842 6.32812Z" fill="white"/>
<path d="M51.0439 8.73633H48.3838V0.146484H51.0439V8.73633Z" fill="white"/>
</svg>
